<?xml version="1.0" encoding="UTF-8"?>
<!DOCTYPE svg PUBLIC "-//W3C//DTD SVG 1.1//EN" "http://www.w3.org/Graphics/SVG/1.1/DTD/svg11.dtd">
<!-- Creator: CorelDRAW 2019 (64-Bit) -->
<svg xmlns="http://www.w3.org/2000/svg" xml:space="preserve" width="41.4866mm" height="24.5906mm" version="1.1" style="shape-rendering:geometricPrecision; text-rendering:geometricPrecision; image-rendering:optimizeQuality; fill-rule:evenodd; clip-rule:evenodd"
viewBox="0 0 4148.66 2459.06"
 xmlns:xlink="http://www.w3.org/1999/xlink"
 xmlns:xodm="http://www.corel.com/coreldraw/odm/2003">
 <defs>
  <style type="text/css">
   <![CDATA[
    .fil0 {fill:black;fill-rule:nonzero}
   ]]>
  </style>
 </defs>
 <g id="Warstwa_x0020_1">
  <metadata id="CorelCorpID_0Corel-Layer"/>
  <g id="_2013879571504">
   <path class="fil0" d="M1213.89 1037.11l0 -391.25 0 -6.47 0 -4.87c0,-63.01 56.59,-111.55 127.75,-111.55 66.26,0 122.84,48.54 122.84,111.55l0 4.87 0 6.47 0 391.25c0,54.97 45.3,97.02 98.65,97.02 53.35,0 95.41,-42.05 95.41,-97.02l0 -391.25 0 -6.47 0 -4.87c0,-168.08 -143.89,-305.55 -316.9,-305.55 -88.92,0 -166.51,32.34 -223.1,87.3 -59.82,-54.96 -137.42,-87.3 -223.1,-87.3 -53.36,0 -103.51,12.96 -148.76,35.58 -14.53,-22.62 -43.63,-38.82 -74.36,-38.82 -51.77,0 -97.02,45.3 -97.02,98.65l0 617.59c0,51.72 45.25,95.36 97.02,95.36 54.98,0 96.98,-43.64 96.98,-95.36l0 -407.45c0,-63.01 56.63,-111.55 126.14,-111.55 69.54,0 126.08,48.54 126.08,111.55l0 4.87 0 6.47 0 391.25c0,54.97 42.05,97.02 97.02,97.02 51.72,0 95.35,-42.05 95.35,-97.02z"/>
   <path class="fil0" d="M2111.91 521.39c109.95,0 202.06,90.55 202.06,202.09 0,111.56 -92.11,200.49 -202.06,200.49 -111.54,0 -203.71,-88.93 -203.71,-200.49 0,-111.54 92.17,-202.09 203.71,-202.09zm0 591.72c97.04,0 177.82,-35.57 247.35,-95.41l0 19.4c0,50.15 32.31,92.16 85.7,92.16 53.35,0 93.74,-42.01 93.74,-92.16l0 -619.17c0,-50.16 -40.39,-92.17 -93.74,-92.17 -53.39,0 -85.7,42.01 -85.7,92.17l0 8.05c-69.53,-56.59 -150.31,-93.74 -247.35,-93.74 -216.67,0 -391.3,176.2 -391.3,391.24 0,215.01 174.63,389.63 391.3,389.63z"/>
   <path class="fil0" d="M3026.14 521.39c104.13,0 190.08,92.12 190.08,206.91l0 305.56c0,53.39 42.93,97.02 99.17,97.02 54.54,0 97.47,-43.63 97.47,-97.02l0 -305.56c0,-221.49 -173.48,-400.91 -386.72,-400.91 -74.41,0 -142.14,20.99 -201.62,58.15 -13.25,-38.77 -49.61,-66.26 -92.56,-66.26 -54.52,0 -99.19,43.64 -99.19,96.98l-0.04 1149.79c0,120 -85,216.68 -198.37,216.68 -96.65,0 -196.62,-96.68 -196.62,-216.68l0 -318.37c0,-54.96 -51.72,-99.97 -105.02,-99.97 -51.72,0 -93.34,45.01 -93.34,99.97l0 318.37c0,230.03 178.29,418.38 394.98,418.38 218.39,0 396.7,-188.35 396.7,-418.38l0.04 -807.03c0,-111.55 66.11,-237.63 195.04,-237.63z"/>
   <path class="fil0" d="M3650.68 206.95c53.34,0 98.64,-45.24 98.64,-98.63l0 -8.05c0,-56.58 -45.3,-100.27 -98.64,-100.27 -56.53,0 -101.85,43.69 -101.85,100.27l0 8.05c0,53.39 45.32,98.63 101.85,98.63z"/>
   <path class="fil0" d="M3650.68 1134.12c53.34,0 98.64,-45.26 98.64,-100.22l0 -624.07c0,-54.97 -45.3,-98.65 -98.64,-98.65 -56.53,0 -101.85,43.68 -101.85,98.65l0 624.07c0,54.96 45.32,100.22 101.85,100.22z"/>
   <path class="fil0" d="M1564.15 1835.68c-121.66,0 -220.02,-98.36 -220.02,-220.02 0,-121.66 98.36,-220.01 220.02,-220.01 120,0 219.97,98.35 219.97,220.01 0,121.66 -99.97,220.02 -219.97,220.02zm0 -641.7c-88.38,0 -171.67,26.66 -238.32,73.33 -13.4,-40 -51.67,-69.99 -96.68,-69.99 -56.69,0 -101.69,45 -101.69,99.97l0 1060.08c0,56.69 45,101.69 101.69,101.69 54.97,0 99.97,-45 99.97,-101.69l0 -390.02c68.36,43.34 148.32,69.99 235.03,69.99 231.7,0 421.68,-188.36 421.68,-421.68 0,-233.37 -189.98,-421.68 -421.68,-421.68z"/>
   <path class="fil0" d="M3128.5 814.37c0,-55.02 -45,-100.03 -101.64,-100.03 -55.02,0 -100.02,45.01 -100.02,100.03l0 359.98 0 498.39c0,78.32 -3.33,151.69 46.67,216.68 43.34,55.02 111.66,90.01 181.69,90.01 56.64,0 101.64,-45.01 101.64,-101.7 0,-55.01 -45,-100.01 -101.64,-100.01 -15.01,0 -26.7,-13.3 -26.7,-28.33 0,-5 -1.67,-9.96 -1.67,-14.96 0,-5.01 1.67,-10.01 1.67,-15.02l0 -905.04z"/>
   <path class="fil0" d="M3728.6 1803.83c-118.32,0 -213.33,-95.02 -213.33,-213.34 0,-118.33 95.01,-213.35 213.33,-213.35 118.34,0 213.4,95.02 213.4,213.35 0,118.32 -95.06,213.34 -213.4,213.34zm0 -631.73c-230.01,0 -418.32,188.36 -418.32,418.39 0,231.69 188.31,418.33 418.32,418.33 230.04,0 418.35,-186.64 420.07,-416.66 -1.72,-231.7 -190.03,-420.06 -420.07,-420.06z"/>
   <path class="fil0" d="M964.34 2138.41l-853.22 0 0 -1701.47 296.29 0c30.72,0 55.59,-24.88 55.59,-55.6 0,-30.68 -24.87,-55.61 -55.59,-55.61l-351.84 0c-30.74,0 -55.57,24.93 -55.57,55.61l0 1812.63c0,30.72 24.83,55.61 55.57,55.61l908.77 0c30.68,0 55.61,-24.89 55.61,-55.61 0,-30.67 -24.93,-55.56 -55.61,-55.56z"/>
   <path class="fil0" d="M1783.23 2138.41l-314.74 0c-30.67,0 -55.55,24.89 -55.55,55.56 0,30.72 24.88,55.61 55.55,55.61l314.74 0c30.68,0 55.61,-24.89 55.61,-55.61 0,-30.67 -24.93,-55.56 -55.61,-55.56z"/>
   <polygon class="fil0" points="3767.9,2138.41 3767.96,2138.41 3768,2138.41 "/>
   <polygon class="fil0" points="3768,2249.55 3767.96,2249.55 3767.9,2249.55 "/>
   <path class="fil0" d="M3767.96 2138.41c-30.68,0 -55.56,24.89 -55.56,55.56 0,30.66 24.88,55.55 55.56,55.61 30.66,-0.06 55.55,-24.95 55.55,-55.61 0,-30.67 -24.89,-55.56 -55.55,-55.56z"/>
   <path class="fil0" d="M2105.97 2266.76c-40.73,0 -73.61,-32.89 -73.61,-73.62 0,-40.68 32.88,-73.61 73.61,-73.61 40.1,0 73.57,32.93 73.57,73.61 0,40.73 -33.47,73.62 -73.57,73.62zm0 -214.67c-29,0 -55.8,8.94 -78.67,23.41l0 -130.49c0,-18.41 -15.01,-34.02 -33.42,-34.02 -18.99,0 -34.07,15.61 -34.07,34.02l0 354.64c0,18.4 15.08,33.47 34.07,33.47 15.02,0 27.88,-10.07 32.35,-23.41 22.27,15.6 50.15,24.54 79.74,24.54 77.5,0 141.05,-63.02 141.05,-141.11 0,-78.03 -63.55,-141.05 -141.05,-141.05z"/>
   <path class="fil0" d="M2397.99 2265.08c-39.6,0 -71.35,-31.75 -71.35,-71.36 0,-39.6 31.75,-71.41 71.35,-71.41 39.61,0 71.37,31.81 71.37,71.41 0,39.61 -31.76,71.36 -71.37,71.36zm0 -211.32c-76.9,0 -139.96,63 -139.96,139.96 0,77.49 63.06,139.93 139.96,139.93 76.96,0 139.97,-62.44 140.51,-139.38 -0.54,-77.51 -63.55,-140.51 -140.51,-140.51z"/>
   <path class="fil0" d="M2681.63 2262.31c-38.48,0 -70.28,-30.68 -70.28,-69.16 0,-38.48 31.8,-69.68 70.28,-69.68 37.89,0 69.7,31.2 69.7,69.68 0,38.48 -31.81,69.16 -69.7,69.16zm114.9 -206.33c-18.41,0 -29.59,14.48 -29.59,31.8l0 2.75c-23.96,-19.48 -51.84,-32.34 -85.31,-32.34 -74.69,0 -134.96,60.81 -134.96,134.96 0,74.17 60.27,134.38 134.96,134.38 33.47,0 61.35,-12.27 85.31,-32.89l0 6.68c0,17.27 11.18,31.8 29.59,31.8 18.4,0 32.29,-14.53 32.29,-31.8l0 -213.54c0,-17.32 -13.89,-31.8 -32.29,-31.8z"/>
   <path class="fil0" d="M3096.53 2093.92c-25.06,-23.47 -57.41,-36.81 -91.97,-36.81 -25.61,0 -50.15,7.8 -70.81,20.6 -4.46,-13.39 -16.73,-22.81 -31.8,-22.81 -18.41,0 -33.43,14.48 -33.43,32.88l0 213.58c0,18.4 15.02,33.43 33.43,33.43 18.41,0 33.47,-15.03 33.47,-33.43l0 -105.41c0,-39.61 31.26,-71.95 69.14,-71.95 17.28,0 33.98,6.72 46.25,18.4 13.98,12.86 34.59,11.73 47.39,-1.67 12.87,-13.35 11.75,-34.55 -1.67,-46.81z"/>
   <path class="fil0" d="M3239.64 2267.32c-40.67,0 -73.56,-32.89 -73.56,-73.62 0,-40.68 32.89,-73.61 73.56,-73.61 40.75,0 73.63,32.93 73.63,73.61 0,40.73 -32.88,73.62 -73.63,73.62zm112.11 -355.77c-18.41,0 -33.43,15.61 -33.43,34.01l0 130.5c-22.86,-14.49 -49.67,-23.42 -78.68,-23.42 -77.48,0 -141.03,63.57 -141.03,141.06 0,78.08 63.55,141.1 141.03,141.1 29.61,0 57.47,-8.93 79.76,-24.54 4.47,13.94 17.32,23.4 32.35,23.4 18.94,0 34.05,-15.07 34.05,-33.47l0 -354.63c0,-18.4 -15.11,-34.01 -34.05,-34.01z"/>
   <path class="fil0" d="M3564.17 2171.41c-18.41,-8.33 -36.81,-8.33 -51.28,-8.93 -8.93,0 -17.28,0 -22.87,-1.67 -4.47,-1.67 -9.48,-8.88 -10.06,-11.73 -2.21,-23.94 28.99,-25.08 45.73,-22.29 10.07,1.67 15.6,5.61 23.41,11.15 4.46,2.79 9.53,4.46 14.48,5 10.6,1.13 21.24,-2.74 28.46,-10.54 12.28,-13.4 11.15,-34.6 -2.25,-46.87 -13.94,-12.81 -30.67,-20.62 -52.96,-24.54 -29.55,-5.01 -70.23,-1.08 -98.15,24.54 -12.77,12.27 -27.84,34 -25.04,69.14 2.21,29.01 25.63,59.1 54.63,68.62 15.61,5.55 30.68,6.13 44.02,6.13 10.02,0 19,0 24,2.76 5.6,2.25 12.27,7.8 12.27,15.65 0,6.13 -3.38,12.27 -8.93,15.6 -21.21,13.94 -58.5,1.08 -68.56,-8.38 -13.4,-12.27 -34.6,-11.69 -46.87,2.25 -12.81,13.34 -11.73,34.54 1.71,46.81 18.41,17.28 54.05,31.81 89.77,31.81 21.15,0 41.77,-4.47 60.76,-16.74 23.95,-16.19 38.48,-42.93 38.48,-71.35 0,-32.39 -20.08,-62.48 -50.75,-76.42z"/>
  </g>
 </g>
</svg>
